HIERARCHY
ROOT root
{
	OFFSET 0.000000 0.000000 0.000000
	CHANNELS 6 Xposition Yposition Zposition Zrotation Yrotation Xrotation
	JOINT lhip
	{
		OFFSET 0.058581 -0.082280 -0.017664
		CHANNELS 3 Zrotation Yrotation Xrotation
		JOINT lknee
		{
			OFFSET 0.043451 -0.386469 0.008037
			CHANNELS 3 Zrotation Yrotation Xrotation
			JOINT lankle
			{
				OFFSET -0.014790 -0.426874 -0.037428
				CHANNELS 3 Zrotation Yrotation Xrotation
				JOINT ltoe
				{
					OFFSET 0.041054 -0.060286 0.122042
					CHANNELS 3 Zrotation Yrotation Xrotation
					End Site
					{
						OFFSET 0.000000 0.000000 0.000000
					}
				}
			}
		}
	}
	JOINT rhip
	{
		OFFSET -0.060310 -0.090513 -0.013543
		CHANNELS 3 Zrotation Yrotation Xrotation
		JOINT rknee
		{
			OFFSET -0.043257 -0.383688 -0.004843
			CHANNELS 3 Zrotation Yrotation Xrotation
			JOINT rankle
			{
				OFFSET 0.019056 -0.420046 -0.034562
				CHANNELS 3 Zrotation Yrotation Xrotation
				JOINT rtoe
				{
					OFFSET -0.034840 -0.062106 0.130323
					CHANNELS 3 Zrotation Yrotation Xrotation
					End Site
					{
						OFFSET 0.000000 0.000000 0.000000
					}
				}
			}
		}
	}
	JOINT lowerback
	{
		OFFSET 0.004439 0.124404 -0.038385
		CHANNELS 3 Zrotation Yrotation Xrotation
		JOINT upperback
		{
			OFFSET 0.004488 0.137956 0.026820
			CHANNELS 3 Zrotation Yrotation Xrotation
			JOINT chest
			{
				OFFSET -0.002265 0.056032 0.002855
				CHANNELS 3 Zrotation Yrotation Xrotation
				JOINT lowerneck
				{
					OFFSET -0.013390 0.211636 -0.033468
					CHANNELS 3 Zrotation Yrotation Xrotation
					JOINT upperneck
					{
						OFFSET 0.010113 0.088937 0.050410
						CHANNELS 3 Zrotation Yrotation Xrotation
						End Site
						{
							OFFSET 0.000000 0.000000 0.000000
						}
					}
				}
				JOINT lclavicle
				{
					OFFSET 0.071702 0.114000 -0.018898
					CHANNELS 3 Zrotation Yrotation Xrotation
					JOINT lshoulder
					{
						OFFSET 0.122921 0.045205 -0.019046
						CHANNELS 3 Zrotation Yrotation Xrotation
						JOINT lelbow
						{
							OFFSET 0.255332 -0.015649 -0.022946
							CHANNELS 3 Zrotation Yrotation Xrotation
							JOINT lwrist
							{
								OFFSET 0.265709 0.012698 -0.007375
								CHANNELS 3 Zrotation Yrotation Xrotation
								End Site
								{
									OFFSET 0.000000 0.000000 0.000000
								}
							}
						}
					}
				}
				JOINT rclavicle
				{
					OFFSET -0.082954 0.112472 -0.023707
					CHANNELS 3 Zrotation Yrotation Xrotation
					JOINT rshoulder
					{
						OFFSET -0.113228 0.046853 -0.008472
						CHANNELS 3 Zrotation Yrotation Xrotation
						JOINT relbow
						{
							OFFSET -0.260127 -0.014369 -0.031269
							CHANNELS 3 Zrotation Yrotation Xrotation
							JOINT rwrist
							{
								OFFSET -0.269108 0.006794 -0.006027
								CHANNELS 3 Zrotation Yrotation Xrotation
								End Site
								{
									OFFSET 0.000000 0.000000 0.000000
								}
							}
						}
					}
				}
			}
		}
	}
}
MOTION
Frames: 15
Frame Time: 0.033333
0.045056 1.569327 0.792453 -46.222319 0.334338 97.261760 19.913090 21.948002 -51.229134 3.804463 28.839326 79.004665 4.561975 9.466330 -28.397600 0.000000 -0.000000 0.000000 -33.134941 -20.941441 -23.178902 6.143471 -6.656742 58.318310 10.030880 8.045239 -33.533198 0.000000 -0.000000 0.000000 4.676383 2.809285 39.230228 -3.762055 0.305777 1.370771 -1.107156 2.325765 -2.033121 -10.074949 8.479593 -17.637728 -8.975995 19.797663 -17.508622 -32.445789 -3.832067 4.821698 -44.602294 12.512098 1.275206 -0.871630 -62.181951 11.192285 21.782414 -7.584082 -19.334537 26.406104 22.377219 7.497352 40.284137 27.779272 2.396815 -23.440587 53.861381 -28.614069 -14.136657 12.814092 6.506456 
0.040472 1.513230 0.785015 -45.369865 0.796336 97.962074 21.443926 23.946344 -53.227079 2.189356 27.704379 77.368073 4.291009 7.770730 -28.498306 0.000000 -0.000000 0.000000 -35.567688 -22.212281 -17.679434 5.989289 -5.084469 53.337153 12.420769 8.745421 -32.103120 0.000000 -0.000000 0.000000 3.179255 5.843783 37.428284 -3.842456 -0.160085 1.653570 -1.298742 2.523516 -1.522397 -8.184513 8.732053 -16.814387 -7.387340 17.377943 -14.505707 -29.294296 -3.281766 4.956101 -38.604756 13.847005 0.329545 -12.590304 -68.399300 22.363190 23.138222 -8.905395 -19.209532 23.754352 21.699492 4.955489 42.993818 27.871763 4.438575 -40.044777 62.765344 -43.287838 -14.930355 14.946791 5.778112 
0.032489 1.445786 0.785936 -42.671465 1.175818 99.508494 21.303891 22.711342 -53.529760 -1.154623 27.681624 77.613525 3.165002 4.786619 -27.069977 0.000000 -0.000000 0.000000 -36.536355 -20.292322 -8.048750 4.286426 -3.695850 41.417812 15.917441 7.063902 -28.619423 0.000000 -0.000000 0.000000 0.783821 9.628690 33.527904 -3.245085 -1.738159 2.234248 -1.465183 2.068127 -0.991027 -4.949943 9.591628 -15.380286 -4.623498 14.333302 -11.445020 -26.784325 -4.050850 4.356819 -30.724860 12.998371 1.848817 -15.105914 -72.708598 24.159762 25.704796 -10.197632 -17.996237 22.600092 18.912949 1.922275 44.015998 24.575054 6.766367 -61.722270 65.421903 -62.449239 -17.509215 16.213343 3.440274 
0.025385 1.370308 0.791324 -38.887327 1.478033 102.818305 18.734382 19.022674 -53.075984 -1.460086 27.206435 80.734646 1.966731 3.953643 -33.946928 0.000000 -0.000000 0.000000 -34.522753 -18.283512 -0.814137 -1.578824 -6.686397 31.193249 23.488568 0.639055 -16.834137 0.000000 -0.000000 0.000000 -2.647120 13.198940 28.868003 -2.351887 -3.461279 -0.002952 -1.447582 1.490994 0.253990 -1.079934 8.646457 -12.442825 -0.175435 11.263702 -8.571538 -24.930722 -4.779590 3.306624 -22.695115 8.653771 3.159065 -3.915067 -77.146896 10.129382 28.204562 -11.360860 -15.886012 23.500854 13.280250 -1.979774 43.565255 17.371869 8.779152 -77.332101 63.014077 -77.690091 -18.266575 15.566001 -0.075300 
0.025037 1.289774 0.800050 -34.517830 2.457956 105.463279 15.889747 13.986831 -51.631340 -3.133790 25.105326 79.910162 3.625554 5.468792 -38.894395 0.000000 -0.000000 0.000000 -31.768789 -17.341365 2.407686 -6.880469 -13.014327 28.490676 25.677925 -9.298460 -0.410858 0.000000 -0.000000 0.000000 -4.418514 13.762465 27.412481 -2.136427 -4.255338 -2.889453 -0.840596 1.143894 1.023515 0.313864 4.648154 -11.119663 4.271627 11.682648 -10.161465 -24.351863 -5.904103 1.403615 -16.407047 1.931083 1.292981 27.981564 -79.966853 -22.960925 30.370659 -12.256856 -13.303400 23.222668 8.134219 -3.794842 41.509686 8.570726 7.518415 -83.211312 58.616560 -84.583289 -19.501274 15.049621 -4.654671 
0.028345 1.211163 0.811259 -29.926959 4.443125 108.518448 14.470583 9.753920 -51.113768 -4.562259 22.768088 79.372187 4.440037 6.752328 -38.686092 0.000000 -0.000000 0.000000 -26.244910 -15.758325 -1.701671 -4.701453 -8.477059 35.467586 18.090082 -11.027610 1.818931 0.000000 -0.000000 0.000000 -4.738378 12.469552 26.477798 -0.952458 -4.882455 -3.445569 0.000287 0.205595 1.426710 0.349225 3.623896 -14.296201 6.614085 11.472326 -13.164933 -21.743625 -6.662271 -2.003820 -14.171562 -4.955131 -3.478850 62.406341 -78.298147 -55.946959 30.273220 -12.117851 -11.965375 20.690638 4.069629 -3.760304 39.914343 2.209200 3.946090 -78.948591 54.998569 -79.072673 -20.279149 14.205777 -7.529292 
0.030540 1.131102 0.825998 -25.113666 5.671150 109.541404 12.387426 5.870583 -46.545787 -6.894984 18.917804 76.378099 3.630239 7.321814 -38.712781 0.000000 -0.000000 0.000000 -21.055608 -11.746732 -7.999365 0.542702 -7.262555 49.385146 17.745011 -5.038482 -2.151471 0.000000 -0.000000 0.000000 -5.034021 9.556917 28.118515 1.294348 -6.456677 -3.162455 1.125912 -1.571726 1.710967 1.063406 6.786047 -16.325836 5.831674 10.023492 -18.249765 -18.080779 -6.868410 -5.082518 -10.857458 -7.045061 -6.824712 82.409606 -71.376882 -77.317796 29.365833 -13.476419 -10.865529 18.823450 1.198873 -6.081337 37.987590 -1.629870 2.211764 -73.722214 53.457092 -74.327668 -19.226467 13.068398 -8.183870 
0.033906 1.043735 0.840942 -21.302573 6.667855 110.177224 8.577458 4.134847 -38.986740 -9.109546 13.663659 69.970816 3.292034 10.343660 -39.233066 0.000000 -0.000000 0.000000 -16.799992 -10.817261 -17.112332 0.589465 -11.635454 64.667253 18.122171 -6.675762 -4.844968 0.000000 -0.000000 0.000000 -4.794734 5.140224 29.945610 3.767157 -7.581853 -5.126832 2.478088 -3.615272 2.399804 1.477601 8.959368 -15.346162 3.369871 12.326134 -20.178210 -14.107354 -5.368806 -6.268275 -8.334611 -4.712668 -9.905160 85.547588 -64.825384 -82.111775 31.751210 -13.388527 -9.267542 15.973358 -1.895467 -8.815026 36.987395 -4.636073 2.014005 -78.604690 53.999713 -78.271139 -16.951293 13.451985 -7.453086 
0.040223 0.950742 0.857738 -20.409948 8.504083 110.753178 5.566871 5.279686 -29.899043 -11.038054 8.245945 62.219828 3.353951 12.953233 -36.809283 0.000000 -0.000000 0.000000 -12.645046 -10.767241 -28.774292 -0.826989 -15.857702 76.071616 12.294021 -9.710207 -9.139200 0.000000 -0.000000 0.000000 -3.425204 -0.261018 29.886394 5.397597 -7.007280 -7.701544 3.110470 -5.128437 3.670009 1.078495 10.671790 -12.265390 -0.180402 15.628652 -19.495714 -11.386509 -2.216470 -5.440023 -7.811615 -0.000589 -12.757119 84.877690 -59.951039 -83.211891 31.859430 -12.754470 -9.486187 12.798166 -4.657313 -10.173464 33.580867 -4.588704 0.681924 -86.988323 56.084930 -83.458535 -13.688198 15.142910 -4.061941 
0.048214 0.846900 0.876706 -23.777024 10.275002 110.289752 2.954357 7.720391 -18.314265 -12.530785 4.698913 51.563715 0.922492 13.410480 -29.703743 0.000000 -0.000000 0.000000 -8.963126 -8.923213 -41.248505 -0.409226 -19.065726 80.734424 8.363584 -8.038263 -11.275230 0.000000 -0.000000 0.000000 -1.970760 -5.336120 28.412608 5.392354 -4.647787 -8.822920 2.628147 -5.506046 4.831490 0.037421 13.636436 -9.219736 -4.808006 18.143536 -17.326850 -9.456828 2.727125 -5.928665 -11.152871 2.758210 -12.968719 84.425774 -55.991992 -83.196592 31.534514 -11.963068 -9.593801 10.282367 -7.078440 -11.656641 28.785126 -0.245945 -0.042146 -93.507067 57.489101 -88.746412 -13.398731 16.638811 -3.219428 
0.055701 0.733477 0.895627 -28.911706 10.867016 109.191144 0.004588 9.743615 -7.338354 -12.342463 3.024057 40.771988 -4.861758 8.584696 -12.203470 0.000000 -0.000000 0.000000 -6.731814 -6.978203 -50.763621 0.826159 -24.082996 78.461413 10.217893 -1.652253 -10.775125 0.000000 -0.000000 0.000000 -0.285538 -9.771214 26.294086 4.255153 -1.603030 -8.682822 1.004530 -4.718845 5.596762 -0.405153 18.784993 -7.311884 -8.808604 17.093854 -13.089261 -8.619376 8.192246 -7.145498 -17.401535 1.279743 -11.475632 87.376290 -51.926036 -84.796766 28.705509 -13.262282 -8.804898 10.123122 -11.029577 -14.237227 24.287299 8.306188 0.215502 -98.279970 58.236628 -91.860205 -14.087284 17.365075 -3.582630 
0.059189 0.618291 0.912530 -33.537907 10.488155 108.631339 -3.298083 9.736535 -0.489879 -11.447947 -0.008666 33.585277 -7.908894 7.279759 -2.146844 0.000000 -0.000000 0.000000 -2.575175 -6.302172 -56.913105 2.684167 -28.458516 70.801581 10.799144 2.974276 -11.200072 0.000000 -0.000000 0.000000 1.341872 -11.526284 25.584486 2.064187 -0.650917 -9.865281 0.716452 -4.442667 3.923079 -2.276929 17.290116 -0.976236 -10.524375 21.799772 -15.241960 -8.948389 9.976598 -6.754064 -22.019032 5.241470 -11.041579 94.355463 -49.942769 -89.980201 29.049292 -12.982107 -7.778491 4.710809 -8.803335 -11.516662 26.092403 8.973223 -3.366240 -105.410421 57.864453 -98.289181 -14.401104 18.146459 -1.692678 
0.063124 0.511931 0.920852 -35.592578 9.445827 107.614909 -4.242335 7.900025 -0.761400 -7.922582 6.259377 42.264325 -4.557793 12.739774 -5.562286 0.000000 -0.000000 0.000000 0.601282 -6.808038 -57.095872 6.001778 -33.236331 60.390628 9.880718 3.723833 -11.038338 0.000000 -0.000000 0.000000 1.914037 -11.447432 26.437085 0.700988 -0.498410 -9.606064 0.133503 -4.388444 5.046952 -2.954199 16.415880 -2.541200 -11.511775 23.191696 -16.942329 -10.288140 11.754005 -6.987188 -26.694994 4.325918 -11.493485 101.980725 -48.710694 -94.078853 28.864094 -13.399075 -7.416588 5.224928 -9.584019 -11.716706 25.363988 12.817234 -5.292642 -110.868720 56.011237 -101.417821 -13.007006 17.982066 -3.800933 
0.065151 0.409404 0.923136 -35.977036 7.288750 104.933118 -2.360772 7.723672 -4.460613 -7.728231 9.313258 58.321972 -1.886118 13.291671 -10.107725 0.000000 -0.000000 0.000000 1.440450 -8.448138 -51.579250 9.203122 -32.770232 52.560211 9.285642 2.550112 -9.424261 0.000000 -0.000000 0.000000 1.599610 -9.231523 30.637469 -0.678484 -1.420076 -9.304339 0.000396 -4.337791 5.732296 -4.163486 14.159449 -6.130404 -9.948946 23.542716 -17.596300 -13.949397 10.053313 -8.377762 -28.130792 3.684290 -11.069242 107.784398 -50.110320 -97.693797 30.636652 -13.455855 -6.350136 8.135382 -8.079339 -11.645584 24.246146 12.864270 -7.857965 -117.657054 52.593112 -107.064827 -12.801074 17.559979 -6.355790 
0.067183 0.306993 0.915696 -36.253332 4.228279 103.676839 0.266149 8.630191 -13.521954 -5.854196 13.358783 73.741274 2.368435 13.113332 -15.719344 0.000000 -0.000000 0.000000 -0.305380 -9.827549 -46.278617 9.531269 -26.625932 51.668899 1.291584 -0.501842 -12.713235 0.000000 -0.000000 0.000000 1.056128 -6.772778 32.138145 -1.709045 -1.466989 -8.129952 -1.293370 -3.911605 6.174798 -4.888218 11.137104 -9.563290 -8.832673 22.062204 -18.300643 -17.832384 7.729742 -8.663545 -28.330727 1.318757 -10.598501 110.528909 -52.843987 -97.812609 32.462081 -12.250013 -7.489093 10.590530 -6.284336 -11.770938 25.976669 13.071593 -7.375066 -122.591241 48.038047 -109.566655 -15.207635 17.748494 -6.861086 
